<?xml version="1.0" encoding="UTF-8" standalone="no"?>
<!DOCTYPE svg PUBLIC "-//W3C//DTD SVG 1.1//EN"
 "http://www.w3.org/Graphics/SVG/1.1/DTD/svg11.dtd">
<!-- Generated by graphviz version 12.1.1 (20240910.0053)
 -->
<!-- Title: INFRA Pages: 1 -->
<svg width="1790pt" height="620pt"
 viewBox="0.00 0.00 1789.65 620.00" xmlns="http://www.w3.org/2000/svg" xmlns:xlink="http://www.w3.org/1999/xlink">
<g id="graph0" class="graph" transform="scale(1 1) rotate(0) translate(4 616)">
<title>INFRA</title>
<polygon fill="white" stroke="none" points="-4,4 -4,-616 1785.65,-616 1785.65,4 -4,4"/>
<!-- spots&#45;asg -->
<g id="node1" class="node">
<title>spots&#45;asg</title>
<path fill="#b7e0ff" stroke="black" stroke-width="2" d="M798.76,-396C798.76,-396 561.65,-396 561.65,-396 555.65,-396 549.65,-390 549.65,-384 549.65,-384 549.65,-336 549.65,-336 549.65,-330 555.65,-324 561.65,-324 561.65,-324 798.76,-324 798.76,-324 804.76,-324 810.76,-330 810.76,-336 810.76,-336 810.76,-384 810.76,-384 810.76,-390 804.76,-396 798.76,-396"/>
<text text-anchor="middle" x="680.21" y="-364.2" font-family="Arial" font-size="14.00">spots&#45;asg</text>
<text text-anchor="middle" x="680.21" y="-347.4" font-family="Arial" font-size="14.00">(AWS::AutoScaling::AutoScalingGroup)</text>
</g>
<!-- spots&#45;launch&#45;template -->
<g id="node8" class="node">
<title>spots&#45;launch&#45;template</title>
<path fill="#b7e0ff" stroke="black" stroke-width="2" d="M498.35,-288C498.35,-288 318.06,-288 318.06,-288 312.06,-288 306.06,-282 306.06,-276 306.06,-276 306.06,-228 306.06,-228 306.06,-222 312.06,-216 318.06,-216 318.06,-216 498.35,-216 498.35,-216 504.35,-216 510.35,-222 510.35,-228 510.35,-228 510.35,-276 510.35,-276 510.35,-282 504.35,-288 498.35,-288"/>
<text text-anchor="middle" x="408.21" y="-256.2" font-family="Arial" font-size="14.00">spots&#45;launch&#45;template</text>
<text text-anchor="middle" x="408.21" y="-239.4" font-family="Arial" font-size="14.00">(AWS::EC2::LaunchTemplate)</text>
</g>
<!-- spots&#45;asg&#45;&gt;spots&#45;launch&#45;template -->
<g id="edge1" class="edge">
<title>spots&#45;asg&#45;&gt;spots&#45;launch&#45;template</title>
<path fill="none" stroke="black" d="M589.26,-323.56C563.74,-313.61 535.83,-302.74 509.74,-292.57"/>
<polygon fill="black" stroke="black" points="511.07,-289.33 500.48,-288.96 508.53,-295.85 511.07,-289.33"/>
</g>
<!-- private&#45;subnet&#45;1a -->
<g id="node14" class="node">
<title>private&#45;subnet&#45;1a</title>
<ellipse fill="#e6e6e6" stroke="black" stroke-width="2" cx="812.21" cy="-252" rx="88.45" ry="36"/>
<text text-anchor="middle" x="812.21" y="-256.2" font-family="Arial" font-size="14.00">private&#45;subnet&#45;1a</text>
<text text-anchor="middle" x="812.21" y="-239.4" font-family="Arial" font-size="14.00">(AWS::EC2::Subnet)</text>
</g>
<!-- spots&#45;asg&#45;&gt;private&#45;subnet&#45;1a -->
<g id="edge2" class="edge">
<title>spots&#45;asg&#45;&gt;private&#45;subnet&#45;1a</title>
<path fill="none" stroke="black" d="M724.16,-323.7C736.96,-313.43 751,-302.15 764.04,-291.68"/>
<polygon fill="black" stroke="black" points="766.1,-294.52 771.7,-285.52 761.71,-289.06 766.1,-294.52"/>
</g>
<!-- private&#45;subnet&#45;1b -->
<g id="node15" class="node">
<title>private&#45;subnet&#45;1b</title>
<ellipse fill="#e6e6e6" stroke="black" stroke-width="2" cx="617.21" cy="-252" rx="88.45" ry="36"/>
<text text-anchor="middle" x="617.21" y="-256.2" font-family="Arial" font-size="14.00">private&#45;subnet&#45;1b</text>
<text text-anchor="middle" x="617.21" y="-239.4" font-family="Arial" font-size="14.00">(AWS::EC2::Subnet)</text>
</g>
<!-- spots&#45;asg&#45;&gt;private&#45;subnet&#45;1b -->
<g id="edge3" class="edge">
<title>spots&#45;asg&#45;&gt;private&#45;subnet&#45;1b</title>
<path fill="none" stroke="black" d="M659.23,-323.7C654.18,-315.21 648.73,-306.04 643.48,-297.2"/>
<polygon fill="black" stroke="black" points="646.56,-295.53 638.44,-288.72 640.54,-299.11 646.56,-295.53"/>
</g>
<!-- private&#45;subnet&#45;1c -->
<g id="node16" class="node">
<title>private&#45;subnet&#45;1c</title>
<ellipse fill="#e6e6e6" stroke="black" stroke-width="2" cx="1230.21" cy="-252" rx="88.45" ry="36"/>
<text text-anchor="middle" x="1230.21" y="-256.2" font-family="Arial" font-size="14.00">private&#45;subnet&#45;1c</text>
<text text-anchor="middle" x="1230.21" y="-239.4" font-family="Arial" font-size="14.00">(AWS::EC2::Subnet)</text>
</g>
<!-- spots&#45;asg&#45;&gt;private&#45;subnet&#45;1c -->
<g id="edge4" class="edge">
<title>spots&#45;asg&#45;&gt;private&#45;subnet&#45;1c</title>
<path fill="none" stroke="black" d="M811.06,-325.54C813.79,-325.01 816.51,-324.49 819.21,-324 956.96,-298.85 995.83,-319.76 1132.21,-288 1140.28,-286.12 1148.61,-283.79 1156.84,-281.23"/>
<polygon fill="black" stroke="black" points="1157.7,-284.63 1166.14,-278.22 1155.55,-277.97 1157.7,-284.63"/>
</g>
<!-- spots&#45;capacity&#45;provider -->
<g id="node2" class="node">
<title>spots&#45;capacity&#45;provider</title>
<path fill="#b7e0ff" stroke="black" stroke-width="2" d="M798.28,-504C798.28,-504 614.13,-504 614.13,-504 608.13,-504 602.13,-498 602.13,-492 602.13,-492 602.13,-444 602.13,-444 602.13,-438 608.13,-432 614.13,-432 614.13,-432 798.28,-432 798.28,-432 804.28,-432 810.28,-438 810.28,-444 810.28,-444 810.28,-492 810.28,-492 810.28,-498 804.28,-504 798.28,-504"/>
<text text-anchor="middle" x="706.21" y="-472.2" font-family="Arial" font-size="14.00">spots&#45;capacity&#45;provider</text>
<text text-anchor="middle" x="706.21" y="-455.4" font-family="Arial" font-size="14.00">(AWS::ECS::CapacityProvider)</text>
</g>
<!-- spots&#45;capacity&#45;provider&#45;&gt;spots&#45;asg -->
<g id="edge5" class="edge">
<title>spots&#45;capacity&#45;provider&#45;&gt;spots&#45;asg</title>
<path fill="none" stroke="black" d="M697.55,-431.7C695.62,-423.84 693.54,-415.38 691.53,-407.15"/>
<polygon fill="black" stroke="black" points="694.97,-406.49 689.19,-397.61 688.17,-408.16 694.97,-406.49"/>
</g>
<!-- main&#45;security&#45;group -->
<g id="node3" class="node">
<title>main&#45;security&#45;group</title>
<ellipse fill="#e6e6e6" stroke="black" stroke-width="2" cx="533.21" cy="-144" rx="116.08" ry="36"/>
<text text-anchor="middle" x="533.21" y="-148.2" font-family="Arial" font-size="14.00">main&#45;security&#45;group</text>
<text text-anchor="middle" x="533.21" y="-131.4" font-family="Arial" font-size="14.00">(AWS::EC2::SecurityGroup)</text>
</g>
<!-- vpc -->
<g id="node13" class="node">
<title>vpc</title>
<ellipse fill="#e6e6e6" stroke="black" stroke-width="2" cx="1004.21" cy="-36" rx="78.9" ry="36"/>
<text text-anchor="middle" x="1004.21" y="-40.2" font-family="Arial" font-size="14.00">vpc</text>
<text text-anchor="middle" x="1004.21" y="-23.4" font-family="Arial" font-size="14.00">(AWS::EC2::VPC)</text>
</g>
<!-- main&#45;security&#45;group&#45;&gt;vpc -->
<g id="edge6" class="edge">
<title>main&#45;security&#45;group&#45;&gt;vpc</title>
<path fill="none" stroke="black" d="M626.26,-122.06C712.77,-102.59 840.34,-73.88 922.87,-55.3"/>
<polygon fill="black" stroke="black" points="923.49,-58.75 932.48,-53.14 921.96,-51.92 923.49,-58.75"/>
</g>
<!-- subnet&#45;ranges&#45;security&#45;group&#45;rule -->
<g id="node4" class="node">
<title>subnet&#45;ranges&#45;security&#45;group&#45;rule</title>
<ellipse fill="#e6e6e6" stroke="black" stroke-width="2" cx="144.21" cy="-252" rx="144.21" ry="36"/>
<text text-anchor="middle" x="144.21" y="-256.2" font-family="Arial" font-size="14.00">subnet&#45;ranges&#45;security&#45;group&#45;rule</text>
<text text-anchor="middle" x="144.21" y="-239.4" font-family="Arial" font-size="14.00">(AWS::EC2::SecurityGroupIngress)</text>
</g>
<!-- subnet&#45;ranges&#45;security&#45;group&#45;rule&#45;&gt;main&#45;security&#45;group -->
<g id="edge7" class="edge">
<title>subnet&#45;ranges&#45;security&#45;group&#45;rule&#45;&gt;main&#45;security&#45;group</title>
<path fill="none" stroke="black" d="M240.36,-224.8C299.99,-208.55 376.34,-187.74 436.13,-171.45"/>
<polygon fill="black" stroke="black" points="436.91,-174.87 445.64,-168.86 435.07,-168.11 436.91,-174.87"/>
</g>
<!-- on&#45;demand&#45;launch&#45;template -->
<g id="node5" class="node">
<title>on&#45;demand&#45;launch&#45;template</title>
<path fill="#b7e0ff" stroke="black" stroke-width="2" d="M1111.35,-288C1111.35,-288 931.06,-288 931.06,-288 925.06,-288 919.06,-282 919.06,-276 919.06,-276 919.06,-228 919.06,-228 919.06,-222 925.06,-216 931.06,-216 931.06,-216 1111.35,-216 1111.35,-216 1117.35,-216 1123.35,-222 1123.35,-228 1123.35,-228 1123.35,-276 1123.35,-276 1123.35,-282 1117.35,-288 1111.35,-288"/>
<text text-anchor="middle" x="1021.21" y="-256.2" font-family="Arial" font-size="14.00">on&#45;demand&#45;launch&#45;template</text>
<text text-anchor="middle" x="1021.21" y="-239.4" font-family="Arial" font-size="14.00">(AWS::EC2::LaunchTemplate)</text>
</g>
<!-- on&#45;demand&#45;launch&#45;template&#45;&gt;main&#45;security&#45;group -->
<g id="edge8" class="edge">
<title>on&#45;demand&#45;launch&#45;template&#45;&gt;main&#45;security&#45;group</title>
<path fill="none" stroke="black" d="M918.8,-218.48C915.57,-217.62 912.37,-216.79 909.21,-216 822.15,-194.26 722.29,-175.69 647.37,-163.01"/>
<polygon fill="black" stroke="black" points="647.97,-159.56 637.53,-161.35 646.81,-166.46 647.97,-159.56"/>
</g>
<!-- on&#45;demand&#45;asg -->
<g id="node6" class="node">
<title>on&#45;demand&#45;asg</title>
<path fill="#b7e0ff" stroke="black" stroke-width="2" d="M1077.76,-396C1077.76,-396 840.65,-396 840.65,-396 834.65,-396 828.65,-390 828.65,-384 828.65,-384 828.65,-336 828.65,-336 828.65,-330 834.65,-324 840.65,-324 840.65,-324 1077.76,-324 1077.76,-324 1083.76,-324 1089.76,-330 1089.76,-336 1089.76,-336 1089.76,-384 1089.76,-384 1089.76,-390 1083.76,-396 1077.76,-396"/>
<text text-anchor="middle" x="959.21" y="-364.2" font-family="Arial" font-size="14.00">on&#45;demand&#45;asg</text>
<text text-anchor="middle" x="959.21" y="-347.4" font-family="Arial" font-size="14.00">(AWS::AutoScaling::AutoScalingGroup)</text>
</g>
<!-- on&#45;demand&#45;asg&#45;&gt;on&#45;demand&#45;launch&#45;template -->
<g id="edge9" class="edge">
<title>on&#45;demand&#45;asg&#45;&gt;on&#45;demand&#45;launch&#45;template</title>
<path fill="none" stroke="black" d="M979.85,-323.7C984.66,-315.48 989.85,-306.61 994.87,-298.03"/>
<polygon fill="black" stroke="black" points="997.86,-299.85 999.89,-289.45 991.82,-296.31 997.86,-299.85"/>
</g>
<!-- on&#45;demand&#45;asg&#45;&gt;private&#45;subnet&#45;1a -->
<g id="edge10" class="edge">
<title>on&#45;demand&#45;asg&#45;&gt;private&#45;subnet&#45;1a</title>
<path fill="none" stroke="black" d="M910.26,-323.7C895.46,-313.03 879.15,-301.28 864.16,-290.47"/>
<polygon fill="black" stroke="black" points="866.41,-287.77 856.25,-284.76 862.32,-293.45 866.41,-287.77"/>
</g>
<!-- on&#45;demand&#45;asg&#45;&gt;private&#45;subnet&#45;1b -->
<g id="edge11" class="edge">
<title>on&#45;demand&#45;asg&#45;&gt;private&#45;subnet&#45;1b</title>
<path fill="none" stroke="black" d="M832.12,-323.58C794.35,-312.64 752.98,-300.23 715.21,-288 707.9,-285.64 700.33,-283.09 692.77,-280.5"/>
<polygon fill="black" stroke="black" points="694.15,-277.27 683.55,-277.3 691.85,-283.88 694.15,-277.27"/>
</g>
<!-- on&#45;demand&#45;asg&#45;&gt;private&#45;subnet&#45;1c -->
<g id="edge12" class="edge">
<title>on&#45;demand&#45;asg&#45;&gt;private&#45;subnet&#45;1c</title>
<path fill="none" stroke="black" d="M1049.82,-323.56C1084.53,-309.98 1123.67,-294.67 1156.6,-281.79"/>
<polygon fill="black" stroke="black" points="1157.61,-285.15 1165.65,-278.25 1155.06,-278.63 1157.61,-285.15"/>
</g>
<!-- on&#45;demand&#45;capacity&#45;provider -->
<g id="node7" class="node">
<title>on&#45;demand&#45;capacity&#45;provider</title>
<path fill="#b7e0ff" stroke="black" stroke-width="2" d="M1037.28,-504C1037.28,-504 853.13,-504 853.13,-504 847.13,-504 841.13,-498 841.13,-492 841.13,-492 841.13,-444 841.13,-444 841.13,-438 847.13,-432 853.13,-432 853.13,-432 1037.28,-432 1037.28,-432 1043.28,-432 1049.28,-438 1049.28,-444 1049.28,-444 1049.28,-492 1049.28,-492 1049.28,-498 1043.28,-504 1037.28,-504"/>
<text text-anchor="middle" x="945.21" y="-472.2" font-family="Arial" font-size="14.00">on&#45;demand&#45;capacity&#45;provider</text>
<text text-anchor="middle" x="945.21" y="-455.4" font-family="Arial" font-size="14.00">(AWS::ECS::CapacityProvider)</text>
</g>
<!-- on&#45;demand&#45;capacity&#45;provider&#45;&gt;on&#45;demand&#45;asg -->
<g id="edge13" class="edge">
<title>on&#45;demand&#45;capacity&#45;provider&#45;&gt;on&#45;demand&#45;asg</title>
<path fill="none" stroke="black" d="M949.87,-431.7C950.89,-423.93 952,-415.57 953.07,-407.43"/>
<polygon fill="black" stroke="black" points="956.53,-408.02 954.37,-397.64 949.59,-407.1 956.53,-408.02"/>
</g>
<!-- spots&#45;launch&#45;template&#45;&gt;main&#45;security&#45;group -->
<g id="edge14" class="edge">
<title>spots&#45;launch&#45;template&#45;&gt;main&#45;security&#45;group</title>
<path fill="none" stroke="black" d="M449.83,-215.7C461.15,-206.11 473.5,-195.63 485.14,-185.76"/>
<polygon fill="black" stroke="black" points="487.36,-188.46 492.73,-179.33 482.83,-183.13 487.36,-188.46"/>
</g>
<!-- load&#45;balancer -->
<g id="node9" class="node">
<title>load&#45;balancer</title>
<ellipse fill="#e6e6e6" stroke="black" stroke-width="2" cx="1526.21" cy="-252" rx="190.01" ry="36"/>
<text text-anchor="middle" x="1526.21" y="-256.2" font-family="Arial" font-size="14.00">load&#45;balancer</text>
<text text-anchor="middle" x="1526.21" y="-239.4" font-family="Arial" font-size="14.00">(AWS::ElasticLoadBalancingV2::LoadBalancer)</text>
</g>
<!-- load&#45;balancer&#45;security&#45;group -->
<g id="node11" class="node">
<title>load&#45;balancer&#45;security&#45;group</title>
<ellipse fill="#e6e6e6" stroke="black" stroke-width="2" cx="1078.21" cy="-144" rx="118.97" ry="36"/>
<text text-anchor="middle" x="1078.21" y="-148.2" font-family="Arial" font-size="14.00">load&#45;balancer&#45;security&#45;group</text>
<text text-anchor="middle" x="1078.21" y="-131.4" font-family="Arial" font-size="14.00">(AWS::EC2::SecurityGroup)</text>
</g>
<!-- load&#45;balancer&#45;&gt;load&#45;balancer&#45;security&#45;group -->
<g id="edge18" class="edge">
<title>load&#45;balancer&#45;&gt;load&#45;balancer&#45;security&#45;group</title>
<path fill="none" stroke="black" d="M1400.5,-224.59C1341.38,-211.79 1270.01,-195.79 1206.21,-180 1196.16,-177.51 1185.71,-174.82 1175.29,-172.08"/>
<polygon fill="black" stroke="black" points="1176.49,-168.78 1165.93,-169.59 1174.69,-175.54 1176.49,-168.78"/>
</g>
<!-- public&#45;subnet&#45;1 -->
<g id="node17" class="node">
<title>public&#45;subnet&#45;1</title>
<ellipse fill="#e6e6e6" stroke="black" stroke-width="2" cx="1303.21" cy="-144" rx="88.45" ry="36"/>
<text text-anchor="middle" x="1303.21" y="-148.2" font-family="Arial" font-size="14.00">public&#45;subnet&#45;1</text>
<text text-anchor="middle" x="1303.21" y="-131.4" font-family="Arial" font-size="14.00">(AWS::EC2::Subnet)</text>
</g>
<!-- load&#45;balancer&#45;&gt;public&#45;subnet&#45;1 -->
<g id="edge15" class="edge">
<title>load&#45;balancer&#45;&gt;public&#45;subnet&#45;1</title>
<path fill="none" stroke="black" d="M1456.87,-218.04C1429.21,-204.89 1397.48,-189.81 1370.07,-176.78"/>
<polygon fill="black" stroke="black" points="1371.69,-173.68 1361.16,-172.55 1368.69,-180 1371.69,-173.68"/>
</g>
<!-- public&#45;subnet&#45;2 -->
<g id="node18" class="node">
<title>public&#45;subnet&#45;2</title>
<ellipse fill="#e6e6e6" stroke="black" stroke-width="2" cx="1498.21" cy="-144" rx="88.45" ry="36"/>
<text text-anchor="middle" x="1498.21" y="-148.2" font-family="Arial" font-size="14.00">public&#45;subnet&#45;2</text>
<text text-anchor="middle" x="1498.21" y="-131.4" font-family="Arial" font-size="14.00">(AWS::EC2::Subnet)</text>
</g>
<!-- load&#45;balancer&#45;&gt;public&#45;subnet&#45;2 -->
<g id="edge16" class="edge">
<title>load&#45;balancer&#45;&gt;public&#45;subnet&#45;2</title>
<path fill="none" stroke="black" d="M1516.88,-215.7C1514.8,-207.84 1512.57,-199.38 1510.4,-191.15"/>
<polygon fill="black" stroke="black" points="1513.81,-190.38 1507.87,-181.61 1507.05,-192.17 1513.81,-190.38"/>
</g>
<!-- public&#45;subnet&#45;3 -->
<g id="node19" class="node">
<title>public&#45;subnet&#45;3</title>
<ellipse fill="#e6e6e6" stroke="black" stroke-width="2" cx="1693.21" cy="-144" rx="88.45" ry="36"/>
<text text-anchor="middle" x="1693.21" y="-148.2" font-family="Arial" font-size="14.00">public&#45;subnet&#45;3</text>
<text text-anchor="middle" x="1693.21" y="-131.4" font-family="Arial" font-size="14.00">(AWS::EC2::Subnet)</text>
</g>
<!-- load&#45;balancer&#45;&gt;public&#45;subnet&#45;3 -->
<g id="edge17" class="edge">
<title>load&#45;balancer&#45;&gt;public&#45;subnet&#45;3</title>
<path fill="none" stroke="black" d="M1579.5,-217.17C1597.63,-205.67 1617.95,-192.77 1636.34,-181.09"/>
<polygon fill="black" stroke="black" points="1638.2,-184.06 1644.77,-175.74 1634.45,-178.15 1638.2,-184.06"/>
</g>
<!-- load&#45;balancer&#45;listener -->
<g id="node10" class="node">
<title>load&#45;balancer&#45;listener</title>
<ellipse fill="#e6e6e6" stroke="black" stroke-width="2" cx="1526.21" cy="-360" rx="167.59" ry="36"/>
<text text-anchor="middle" x="1526.21" y="-364.2" font-family="Arial" font-size="14.00">load&#45;balancer&#45;listener</text>
<text text-anchor="middle" x="1526.21" y="-347.4" font-family="Arial" font-size="14.00">(AWS::ElasticLoadBalancingV2::Listener)</text>
</g>
<!-- load&#45;balancer&#45;listener&#45;&gt;load&#45;balancer -->
<g id="edge19" class="edge">
<title>load&#45;balancer&#45;listener&#45;&gt;load&#45;balancer</title>
<path fill="none" stroke="black" d="M1526.21,-323.7C1526.21,-315.93 1526.21,-307.57 1526.21,-299.43"/>
<polygon fill="black" stroke="black" points="1529.71,-299.66 1526.21,-289.66 1522.71,-299.66 1529.71,-299.66"/>
</g>
<!-- load&#45;balancer&#45;security&#45;group&#45;&gt;vpc -->
<g id="edge20" class="edge">
<title>load&#45;balancer&#45;security&#45;group&#45;&gt;vpc</title>
<path fill="none" stroke="black" d="M1053.98,-108.29C1047.65,-99.23 1040.76,-89.37 1034.18,-79.94"/>
<polygon fill="black" stroke="black" points="1037.19,-78.14 1028.6,-71.94 1031.45,-82.15 1037.19,-78.14"/>
</g>
<!-- ecs&#45;cluster -->
<g id="node12" class="node">
<title>ecs&#45;cluster</title>
<path fill="#b7e0ff" stroke="black" stroke-width="2" d="M880.16,-612C880.16,-612 758.25,-612 758.25,-612 752.25,-612 746.25,-606 746.25,-600 746.25,-600 746.25,-552 746.25,-552 746.25,-546 752.25,-540 758.25,-540 758.25,-540 880.16,-540 880.16,-540 886.16,-540 892.16,-546 892.16,-552 892.16,-552 892.16,-600 892.16,-600 892.16,-606 886.16,-612 880.16,-612"/>
<text text-anchor="middle" x="819.21" y="-580.2" font-family="Arial" font-size="14.00">ecs&#45;cluster</text>
<text text-anchor="middle" x="819.21" y="-563.4" font-family="Arial" font-size="14.00">(AWS::ECS::Cluster)</text>
</g>
<!-- ecs&#45;cluster&#45;&gt;spots&#45;capacity&#45;provider -->
<g id="edge22" class="edge">
<title>ecs&#45;cluster&#45;&gt;spots&#45;capacity&#45;provider</title>
<path fill="none" stroke="black" d="M781.58,-539.7C772.05,-530.76 761.71,-521.06 751.83,-511.8"/>
<polygon fill="black" stroke="black" points="754.46,-509.47 744.77,-505.18 749.67,-514.57 754.46,-509.47"/>
</g>
<!-- ecs&#45;cluster&#45;&gt;on&#45;demand&#45;capacity&#45;provider -->
<g id="edge21" class="edge">
<title>ecs&#45;cluster&#45;&gt;on&#45;demand&#45;capacity&#45;provider</title>
<path fill="none" stroke="black" d="M861.16,-539.7C871.89,-530.67 883.55,-520.87 894.66,-511.52"/>
<polygon fill="black" stroke="black" points="896.88,-514.23 902.27,-505.12 892.37,-508.88 896.88,-514.23"/>
</g>
<!-- private&#45;subnet&#45;1a&#45;&gt;vpc -->
<g id="edge23" class="edge">
<title>private&#45;subnet&#45;1a&#45;&gt;vpc</title>
<path fill="none" stroke="black" d="M833.76,-216.77C853.58,-186.57 884.75,-142.16 917.21,-108 928.44,-96.17 941.63,-84.49 954.29,-74.12"/>
<polygon fill="black" stroke="black" points="956.16,-77.11 961.77,-68.12 951.78,-71.65 956.16,-77.11"/>
</g>
<!-- private&#45;subnet&#45;1b&#45;&gt;vpc -->
<g id="edge24" class="edge">
<title>private&#45;subnet&#45;1b&#45;&gt;vpc</title>
<path fill="none" stroke="black" d="M663.84,-221.15C711.28,-191.23 787.26,-144.49 855.21,-108 882.06,-93.58 912.33,-78.88 938.53,-66.63"/>
<polygon fill="black" stroke="black" points="939.77,-69.91 947.36,-62.52 936.82,-63.57 939.77,-69.91"/>
</g>
<!-- private&#45;subnet&#45;1c&#45;&gt;vpc -->
<g id="edge25" class="edge">
<title>private&#45;subnet&#45;1c&#45;&gt;vpc</title>
<path fill="none" stroke="black" d="M1166.33,-226.66C1155.05,-222.8 1143.35,-219.07 1132.21,-216 1052.72,-194.07 1002.55,-243.71 950.21,-180 926.08,-150.64 945.84,-109.39 967.94,-78.73"/>
<polygon fill="black" stroke="black" points="970.69,-80.88 973.91,-70.79 965.1,-76.67 970.69,-80.88"/>
</g>
<!-- public&#45;subnet&#45;1&#45;&gt;vpc -->
<g id="edge26" class="edge">
<title>public&#45;subnet&#45;1&#45;&gt;vpc</title>
<path fill="none" stroke="black" d="M1237.75,-119.3C1227.21,-115.51 1216.41,-111.63 1206.21,-108 1163.31,-92.72 1115.22,-75.81 1076.73,-62.33"/>
<polygon fill="black" stroke="black" points="1078.16,-59.12 1067.57,-59.12 1075.85,-65.73 1078.16,-59.12"/>
</g>
<!-- public&#45;subnet&#45;2&#45;&gt;vpc -->
<g id="edge27" class="edge">
<title>public&#45;subnet&#45;2&#45;&gt;vpc</title>
<path fill="none" stroke="black" d="M1434.64,-118.58C1423.27,-114.71 1411.47,-111 1400.21,-108 1295.29,-80.07 1171.79,-59.88 1090.95,-48.33"/>
<polygon fill="black" stroke="black" points="1091.72,-44.9 1081.33,-46.97 1090.74,-51.83 1091.72,-44.9"/>
</g>
<!-- public&#45;subnet&#45;3&#45;&gt;vpc -->
<g id="edge28" class="edge">
<title>public&#45;subnet&#45;3&#45;&gt;vpc</title>
<path fill="none" stroke="black" d="M1630.3,-118.21C1618.76,-114.33 1606.72,-110.71 1595.21,-108 1420.47,-66.85 1210.74,-48.85 1093.97,-41.54"/>
<polygon fill="black" stroke="black" points="1094.33,-38.05 1084.13,-40.93 1093.9,-45.04 1094.33,-38.05"/>
</g>
</g>
</svg>
